Coordinates
version=1
nRows=9
nColumns=36
inDegrees=yes

Units are S.I. units (second, meters, Newtons, ...)
If the header above contains a line with 'inDegrees', this indicates whether rotational values are in degrees (yes) or radians (no).

endheader
time	pelvis_tilt	pelvis_list	pelvis_rotation	pelvis_tx	pelvis_ty	pelvis_tz	hip_flexion_r	hip_adduction_r	hip_rotation_r	knee_angle_r	knee_angle_r_beta	ankle_angle_r	subtalar_angle_r	mtp_angle_r	hip_flexion_l	hip_adduction_l	hip_rotation_l	knee_angle_l	knee_angle_l_beta	ankle_angle_l	subtalar_angle_l	mtp_angle_l	lumbar_extension	lumbar_bending	lumbar_rotation	arm_flex_r	arm_add_r	arm_rot_r	elbow_flex_r	pro_sup_r	arm_flex_l	arm_add_l	arm_rot_l	elbow_flex_l	pro_sup_l
      0.36000000	      0.27827425	     -3.34373705	      3.38845713	      0.33594169	      0.96621777	     -0.16684966	     -3.13492854	     10.25898468	      2.31716305	      3.12791520	      0.05459242	      7.51066494	     -7.67865237	     -6.82103831	     28.11582030	     -5.61787567	     -2.56138626	     51.69772078	      0.90229544	     -0.18127593	    -13.31140604	     -6.82103831	     -5.46660402	      2.13152058	      9.04638410	      8.17695554	     -6.60157989	    -12.86388479	     32.88141338	    104.84758745	     -3.17881560	     -0.84357592	     -7.00035480	     20.52516478	    100.29138745
      0.37000000	      0.18254395	     -3.21426331	      2.83487589	      0.34577169	      0.96592930	     -0.16674663	     -3.97198895	     10.07501611	      2.80328406	      2.71117944	      0.04731901	      7.89762854	     -7.35705057	     -6.83069553	     28.38568425	     -5.46695551	     -3.19707410	     48.44801867	      0.84557744	     -0.19283273	    -12.87325990	     -6.83069553	     -5.28914901	      2.05665566	      9.79993004	      8.85898272	     -6.74603050	    -12.75645541	     33.70339908	    104.98897708	     -4.22715681	     -0.81778413	     -7.58731685	     19.56831630	    100.08428190
      0.38000000	     -0.03253262	     -3.21579527	      2.39047053	      0.35568777	      0.96519647	     -0.16683579	     -4.63604190	     10.02096442	      3.09848084	      2.35827912	      0.04115974	      8.23027511	     -7.01338289	     -6.83765620	     28.74807414	     -5.38641922	     -3.67479334	     45.06145458	      0.78647075	     -0.25688211	    -12.38374271	     -6.83765620	     -4.90730010	      2.15452748	     10.36575635	      9.51781693	     -6.84592741	    -12.73957268	     34.56034476	    105.01111548	     -5.40410940	     -0.79527002	     -8.09054155	     18.82134949	     99.84625543
      0.39000000	     -0.14651570	     -3.13775105	      1.94683459	      0.36569433	      0.96447604	     -0.16696940	     -5.43533223	      9.87153604	      3.46606343	      1.97756516	      0.03451502	      8.70253006	     -6.57525004	     -6.84546816	     28.81377392	     -5.21691026	     -4.20222940	     41.35514951	      0.72178352	     -0.52558208	    -11.75809994	     -6.84546816	     -4.71389378	      2.13813606	     11.04138566	     10.09724022	     -6.97517969	    -12.75825004	     35.48968464	    105.04538710	     -6.44805680	     -0.78638601	     -8.74994644	     18.15114491	     99.56026870
      0.40000000	     -0.01093002	     -3.08520705	      1.59217738	      0.37582496	      0.96392691	     -0.16733964	     -6.46457479	      9.72077605	      3.21588361	      1.69513167	      0.02958563	      9.89274863	     -4.98493962	     -6.91293519	     28.48443008	     -5.04328679	     -4.77910256	     37.38865332	      0.65255510	     -1.16583058	    -11.39590351	     -6.91293519	     -4.86126877	      2.15801826	     11.65075956	     10.63236687	     -6.94829088	    -13.37516347	     36.64493541	    105.75219110	     -7.63114069	     -0.40072901	    -12.06927716	     18.66853193	     98.55063978
      0.41000000	     -0.14239374	     -3.13052946	      1.28200612	      0.38593835	      0.96277966	     -0.16771727	     -7.21718153	      9.69413146	      3.49118433	      1.38272426	      0.02413309	     10.30093149	     -4.71382191	     -6.92964875	     28.42941228	     -4.94399476	     -5.29788801	     33.39698920	      0.58288742	     -1.44582347	    -10.48833413	     -6.92964875	     -4.62788487	      2.30418858	     12.14683891	     11.18341556	     -7.06531434	    -13.22618056	     37.55857574	    105.86970130	     -8.75327164	     -0.39861212	    -12.67571540	     18.31456764	     98.34227051
      0.42000000	     -0.52638718	     -3.23979696	      1.05733791	      0.39605308	      0.96106623	     -0.16827743	     -7.64911629	      9.73391380	      3.69944912	      1.15289159	      0.02012175	     10.64958134	     -4.46496799	     -6.93704521	     28.62164216	     -4.82198164	     -5.62975014	     29.34706777	      0.51220296	     -1.60746439	     -9.43900633	     -6.93704521	     -4.07952185	      2.52432648	     12.51299641	     11.68088610	     -7.12553809	    -13.14233264	     38.40809788	    105.88470140	     -9.95908897	     -0.42394246	    -13.04330150	     18.01074940	     98.17984199
      0.43000000	     -0.56738335	     -3.31275254	      0.81629329	      0.40626436	      0.95972220	     -0.16883001	     -8.45005823	      9.72119333	      3.60507522	      0.96131351	      0.01677809	     11.45900582	     -3.64641326	     -6.96295485	     28.30552541	     -4.74781248	     -6.40983517	     25.15674860	      0.43906809	     -1.64568497	     -7.93236431	     -6.96295485	     -4.00810986	      2.68757720	     12.99501117	     12.13388046	     -7.18514013	    -13.25957904	     39.48587706	    106.06938488	    -11.07548332	     -0.34323266	    -14.20040489	     18.08357822	     97.89235615
      0.44000000	     -1.04931579	     -3.48800762	      0.65256789	      0.41638793	      0.95755106	     -0.16949556	     -8.72857061	      9.82998722	      3.79284952	      0.83879514	      0.01463974	     11.80324491	     -3.44475027	     -6.96950595	     28.50187877	     -4.64540959	     -6.77571438	     21.07670036	      0.36785782	     -1.59679361	     -6.59945825	     -6.96950595	     -3.37481204	      2.97847499	     13.21492159	     12.60442698	     -7.18613315	    -13.12714891	     40.32991560	    106.05848140	    -12.31136879	     -0.38421410	    -14.48392226	     17.83133175	     97.75258043
